<svg width="24" height="24" viewBox="0 0 24 24" fill="currentColor" xmlns="http://www.w3.org/2000/svg">
<path d="M4 3H20C20.5523 3 21 3.44772 21 4V20C21 20.5523 20.5523 21 20 21H4C3.44772 21 3 20.5523 3 20V4C3 3.44772 3.44772 3 4 3ZM11.0026 16L18.0737 8.92893L16.6595 7.51472L11.0026 13.1716L8.17421 10.3431L6.75999 11.7574L11.0026 16Z" fill="currentColor"/>
<path fill-rule="evenodd" clip-rule="evenodd" d="M18.073 8.92859L11.0019 15.9996L6.75928 11.7571L8.1735 10.3428L11.0019 13.1713L16.6588 7.5144L18.073 8.92859Z" fill="white"/>
</svg>
